{
    "asset" : {
        "generator" : "Khronos glTF Blender I/O v3.3.32",
        "version" : "2.0"
    },
    "scene" : 0,
    "scenes" : [
        {
            "name" : "Scene",
            "nodes" : [
                0,
                1,
                2,
                3
            ]
        }
    ],
    "nodes" : [
        {
            "mesh" : 0,
            "name" : "drawer"
        },
        {
            "mesh" : 1,
            "name" : "drawer.001",
            "translation" : [
                0,
                0.38659539818763733,
                -0.09618794918060303
            ]
        },
        {
            "mesh" : 2,
            "name" : "drawer.002",
            "translation" : [
                0,
                0.38659539818763733,
                -0.1769207864999771
            ]
        },
        {
            "mesh" : 3,
            "name" : "drawer.003",
            "translation" : [
                0,
                0.38659539818763733,
                -0.26025012135505676
            ]
        }
    ],
    "materials" : [
        {
            "doubleSided" : true,
            "name" : "\u30de\u30c6\u30ea\u30a2\u30eb",
            "pbrMetallicRoughness" : {
                "baseColorFactor" : [
                    0.11493474245071411,
                    0.015737920999526978,
                    0.007121345028281212,
                    1
                ],
                "metallicFactor" : 0,
                "roughnessFactor" : 0.5
            }
        },
        {
            "doubleSided" : true,
            "name" : "\u30de\u30c6\u30ea\u30a2\u30eb.002",
            "pbrMetallicRoughness" : {
                "baseColorFactor" : [
                    0.2460000067949295,
                    0.12103790789842606,
                    0.05608799681067467,
                    1
                ],
                "metallicFactor" : 0,
                "roughnessFactor" : 0.5
            }
        },
        {
            "doubleSided" : true,
            "name" : "\u30de\u30c6\u30ea\u30a2\u30eb.003",
            "pbrMetallicRoughness" : {
                "baseColorFactor" : [
                    0.2460000067949295,
                    0.12103790789842606,
                    0.05608799681067467,
                    1
                ],
                "metallicFactor" : 0,
                "roughnessFactor" : 0.5
            }
        },
        {
            "doubleSided" : true,
            "name" : "\u30de\u30c6\u30ea\u30a2\u30eb.001",
            "pbrMetallicRoughness" : {
                "baseColorFactor" : [
                    0.24619337916374207,
                    0.12106062471866608,
                    0.05624128133058548,
                    1
                ],
                "metallicFactor" : 0,
                "roughnessFactor" : 0.5
            }
        }
    ],
    "meshes" : [
        {
            "name" : "Plane.004",
            "primitives" : [
                {
                    "attributes" : {
                        "POSITION" : 0,
                        "NORMAL" : 1,
                        "TEXCOORD_0" : 2
                    },
                    "indices" : 3,
                    "material" : 0
                }
            ]
        },
        {
            "name" : "Plane.001",
            "primitives" : [
                {
                    "attributes" : {
                        "POSITION" : 4,
                        "NORMAL" : 5,
                        "TEXCOORD_0" : 6
                    },
                    "indices" : 7,
                    "material" : 1
                }
            ]
        },
        {
            "name" : "Plane.002",
            "primitives" : [
                {
                    "attributes" : {
                        "POSITION" : 8,
                        "NORMAL" : 9,
                        "TEXCOORD_0" : 10
                    },
                    "indices" : 11,
                    "material" : 2
                }
            ]
        },
        {
            "name" : "Plane.003",
            "primitives" : [
                {
                    "attributes" : {
                        "POSITION" : 12,
                        "NORMAL" : 13,
                        "TEXCOORD_0" : 14
                    },
                    "indices" : 7,
                    "material" : 3
                }
            ]
        }
    ],
    "accessors" : [
        {
            "bufferView" : 0,
            "componentType" : 5126,
            "count" : 1304,
            "max" : [
                0.43177494406700134,
                0.6673332452774048,
                0.31398606300354004
            ],
            "min" : [
                -0.4425315856933594,
                0.0010740160942077637,
                -0.30525514483451843
            ],
            "type" : "VEC3"
        },
        {
            "bufferView" : 1,
            "componentType" : 5126,
            "count" : 1304,
            "type" : "VEC3"
        },
        {
            "bufferView" : 2,
            "componentType" : 5126,
            "count" : 1304,
            "type" : "VEC2"
        },
        {
            "bufferView" : 3,
            "componentType" : 5123,
            "count" : 6660,
            "type" : "SCALAR"
        },
        {
            "bufferView" : 4,
            "componentType" : 5126,
            "count" : 758,
            "max" : [
                0.35533779859542847,
                0.06479907780885696,
                0.5497472286224365
            ],
            "min" : [
                -0.3592917323112488,
                -0.10602429509162903,
                0.04582298919558525
            ],
            "type" : "VEC3"
        },
        {
            "bufferView" : 5,
            "componentType" : 5126,
            "count" : 758,
            "type" : "VEC3"
        },
        {
            "bufferView" : 6,
            "componentType" : 5126,
            "count" : 758,
            "type" : "VEC2"
        },
        {
            "bufferView" : 7,
            "componentType" : 5123,
            "count" : 1224,
            "type" : "SCALAR"
        },
        {
            "bufferView" : 8,
            "componentType" : 5126,
            "count" : 758,
            "max" : [
                0.35533779859542847,
                -0.10897643864154816,
                0.7829076051712036
            ],
            "min" : [
                -0.3592917323112488,
                -0.27979981899261475,
                0.27898332476615906
            ],
            "type" : "VEC3"
        },
        {
            "bufferView" : 9,
            "componentType" : 5126,
            "count" : 758,
            "type" : "VEC3"
        },
        {
            "bufferView" : 10,
            "componentType" : 5126,
            "count" : 758,
            "type" : "VEC2"
        },
        {
            "bufferView" : 11,
            "componentType" : 5123,
            "count" : 1224,
            "type" : "SCALAR"
        },
        {
            "bufferView" : 12,
            "componentType" : 5126,
            "count" : 758,
            "max" : [
                0.35533779859542847,
                0.23751536011695862,
                0.5497472882270813
            ],
            "min" : [
                -0.3592917323112488,
                0.06669199466705322,
                0.04582298919558525
            ],
            "type" : "VEC3"
        },
        {
            "bufferView" : 13,
            "componentType" : 5126,
            "count" : 758,
            "type" : "VEC3"
        },
        {
            "bufferView" : 14,
            "componentType" : 5126,
            "count" : 758,
            "type" : "VEC2"
        }
    ],
    "bufferViews" : [
        {
            "buffer" : 0,
            "byteLength" : 15648,
            "byteOffset" : 0,
            "target" : 34962
        },
        {
            "buffer" : 0,
            "byteLength" : 15648,
            "byteOffset" : 15648,
            "target" : 34962
        },
        {
            "buffer" : 0,
            "byteLength" : 10432,
            "byteOffset" : 31296,
            "target" : 34962
        },
        {
            "buffer" : 0,
            "byteLength" : 13320,
            "byteOffset" : 41728,
            "target" : 34963
        },
        {
            "buffer" : 0,
            "byteLength" : 9096,
            "byteOffset" : 55048,
            "target" : 34962
        },
        {
            "buffer" : 0,
            "byteLength" : 9096,
            "byteOffset" : 64144,
            "target" : 34962
        },
        {
            "buffer" : 0,
            "byteLength" : 6064,
            "byteOffset" : 73240,
            "target" : 34962
        },
        {
            "buffer" : 0,
            "byteLength" : 2448,
            "byteOffset" : 79304,
            "target" : 34963
        },
        {
            "buffer" : 0,
            "byteLength" : 9096,
            "byteOffset" : 81752,
            "target" : 34962
        },
        {
            "buffer" : 0,
            "byteLength" : 9096,
            "byteOffset" : 90848,
            "target" : 34962
        },
        {
            "buffer" : 0,
            "byteLength" : 6064,
            "byteOffset" : 99944,
            "target" : 34962
        },
        {
            "buffer" : 0,
            "byteLength" : 2448,
            "byteOffset" : 106008,
            "target" : 34963
        },
        {
            "buffer" : 0,
            "byteLength" : 9096,
            "byteOffset" : 108456,
            "target" : 34962
        },
        {
            "buffer" : 0,
            "byteLength" : 9096,
            "byteOffset" : 117552,
            "target" : 34962
        },
        {
            "buffer" : 0,
            "byteLength" : 6064,
            "byteOffset" : 126648,
            "target" : 34962
        }
    ],
    "buffers" : [
        {
            "byteLength" : 132712,
            "uri" : "data:application/octet-stream;base64,"
        }
    ]
}
