{
    "asset" : {
        "generator" : "Khronos glTF Blender I/O v3.3.32",
        "version" : "2.0"
    },
    "extensionsUsed" : [
        "KHR_texture_transform",
        "KHR_materials_specular",
        "KHR_materials_ior"
    ],
    "extensionsRequired" : [
        "KHR_texture_transform"
    ],
    "scene" : 0,
    "scenes" : [
        {
            "name" : "Scene",
            "nodes" : [
                0
            ]
        }
    ],
    "nodes" : [
        {
            "mesh" : 0,
            "name" : "NILSOLLE bar stool | IKEA"
        }
    ],
    "materials" : [
        {
            "doubleSided" : true,
            "name" : "Wood.001",
            "normalTexture" : {
                "extensions" : {
                    "KHR_texture_transform" : {
                        "offset" : [
                            0,
                            -3
                        ],
                        "scale" : [
                            4,
                            4
                        ]
                    }
                },
                "index" : 0
            },
            "pbrMetallicRoughness" : {
                "baseColorTexture" : {
                    "extensions" : {
                        "KHR_texture_transform" : {
                            "offset" : [
                                0,
                                -3
                            ],
                            "scale" : [
                                4,
                                4
                            ]
                        }
                    },
                    "index" : 1
                },
                "metallicFactor" : 0,
                "metallicRoughnessTexture" : {
                    "extensions" : {
                        "KHR_texture_transform" : {
                            "offset" : [
                                0,
                                -3
                            ],
                            "scale" : [
                                4,
                                4
                            ]
                        }
                    },
                    "index" : 2
                }
            }
        },
        {
            "doubleSided" : true,
            "extensions" : {
                "KHR_materials_specular" : {
                    "specularColorFactor" : [
                        2.371357614441398,
                        2.371357614441398,
                        2.371357614441398
                    ]
                },
                "KHR_materials_ior" : {
                    "ior" : 1.4500000476837158
                }
            },
            "name" : "Metal chrome",
            "pbrMetallicRoughness" : {
                "baseColorFactor" : [
                    0.699999988079071,
                    0.699999988079071,
                    0.699999988079071,
                    1
                ],
                "roughnessFactor" : 0.25
            }
        },
        {
            "doubleSided" : true,
            "extensions" : {
                "KHR_materials_specular" : {
                    "specularColorFactor" : [
                        1.6599503018401929,
                        1.6599503018401929,
                        1.6599503018401929
                    ]
                },
                "KHR_materials_ior" : {
                    "ior" : 1.4500000476837158
                }
            },
            "name" : "Plastic black glossy",
            "pbrMetallicRoughness" : {
                "baseColorFactor" : [
                    0.012286492623388767,
                    0.012286492623388767,
                    0.012286492623388767,
                    1
                ],
                "metallicFactor" : 0,
                "roughnessFactor" : 0.30000001192092896
            }
        }
    ],
    "meshes" : [
        {
            "name" : "NILSOLLE bar stool | IKEA",
            "primitives" : [
                {
                    "attributes" : {
                        "POSITION" : 0,
                        "NORMAL" : 1,
                        "TEXCOORD_0" : 2
                    },
                    "indices" : 3,
                    "material" : 0
                },
                {
                    "attributes" : {
                        "POSITION" : 4,
                        "NORMAL" : 5,
                        "TEXCOORD_0" : 6
                    },
                    "indices" : 7,
                    "material" : 1
                },
                {
                    "attributes" : {
                        "POSITION" : 8,
                        "NORMAL" : 9,
                        "TEXCOORD_0" : 10
                    },
                    "indices" : 11,
                    "material" : 2
                }
            ]
        }
    ],
    "textures" : [
        {
            "sampler" : 0,
            "source" : 0
        },
        {
            "sampler" : 0,
            "source" : 1
        },
        {
            "sampler" : 0,
            "source" : 2
        }
    ],
    "images" : [
        {
            "bufferView" : 4,
            "mimeType" : "image/jpeg",
            "name" : "Wood_nrm"
        },
        {
            "bufferView" : 5,
            "mimeType" : "image/jpeg",
            "name" : "Wood_col"
        },
        {
            "bufferView" : 6,
            "mimeType" : "image/png",
            "name" : "Wood_rgh"
        }
    ],
    "accessors" : [
        {
            "bufferView" : 0,
            "componentType" : 5126,
            "count" : 1315,
            "max" : [
                0.19803856313228607,
                0.7390661239624023,
                0.1949998140335083
            ],
            "min" : [
                -0.19815844297409058,
                -0.0010750293731689453,
                -0.1949998140335083
            ],
            "type" : "VEC3"
        },
        {
            "bufferView" : 1,
            "componentType" : 5126,
            "count" : 1315,
            "type" : "VEC3"
        },
        {
            "bufferView" : 2,
            "componentType" : 5126,
            "count" : 1315,
            "type" : "VEC2"
        },
        {
            "bufferView" : 3,
            "componentType" : 5123,
            "count" : 3564,
            "type" : "SCALAR"
        },
        {
            "bufferView" : 7,
            "componentType" : 5126,
            "count" : 154,
            "max" : [
                0.17363247275352478,
                0.4928634464740753,
                0.1494503915309906
            ],
            "min" : [
                -0.17708151042461395,
                0.27874764800071716,
                -0.1494503915309906
            ],
            "type" : "VEC3"
        },
        {
            "bufferView" : 8,
            "componentType" : 5126,
            "count" : 154,
            "type" : "VEC3"
        },
        {
            "bufferView" : 9,
            "componentType" : 5126,
            "count" : 154,
            "type" : "VEC2"
        },
        {
            "bufferView" : 10,
            "componentType" : 5123,
            "count" : 420,
            "type" : "SCALAR"
        },
        {
            "bufferView" : 11,
            "componentType" : 5126,
            "count" : 316,
            "max" : [
                0.19395753741264343,
                -0.0010749995708465576,
                0.19396363198757172
            ],
            "min" : [
                -0.19395753741264343,
                -0.005991402082145214,
                -0.19396363198757172
            ],
            "type" : "VEC3"
        },
        {
            "bufferView" : 12,
            "componentType" : 5126,
            "count" : 316,
            "type" : "VEC3"
        },
        {
            "bufferView" : 13,
            "componentType" : 5126,
            "count" : 316,
            "type" : "VEC2"
        },
        {
            "bufferView" : 14,
            "componentType" : 5123,
            "count" : 948,
            "type" : "SCALAR"
        }
    ],
    "bufferViews" : [
        {
            "buffer" : 0,
            "byteLength" : 15780,
            "byteOffset" : 0,
            "target" : 34962
        },
        {
            "buffer" : 0,
            "byteLength" : 15780,
            "byteOffset" : 15780,
            "target" : 34962
        },
        {
            "buffer" : 0,
            "byteLength" : 10520,
            "byteOffset" : 31560,
            "target" : 34962
        },
        {
            "buffer" : 0,
            "byteLength" : 7128,
            "byteOffset" : 42080,
            "target" : 34963
        },
        {
            "buffer" : 0,
            "byteLength" : 752257,
            "byteOffset" : 49208
        },
        {
            "buffer" : 0,
            "byteLength" : 604942,
            "byteOffset" : 801468
        },
        {
            "buffer" : 0,
            "byteLength" : 202158,
            "byteOffset" : 1406412
        },
        {
            "buffer" : 0,
            "byteLength" : 1848,
            "byteOffset" : 1608572,
            "target" : 34962
        },
        {
            "buffer" : 0,
            "byteLength" : 1848,
            "byteOffset" : 1610420,
            "target" : 34962
        },
        {
            "buffer" : 0,
            "byteLength" : 1232,
            "byteOffset" : 1612268,
            "target" : 34962
        },
        {
            "buffer" : 0,
            "byteLength" : 840,
            "byteOffset" : 1613500,
            "target" : 34963
        },
        {
            "buffer" : 0,
            "byteLength" : 3792,
            "byteOffset" : 1614340,
            "target" : 34962
        },
        {
            "buffer" : 0,
            "byteLength" : 3792,
            "byteOffset" : 1618132,
            "target" : 34962
        },
        {
            "buffer" : 0,
            "byteLength" : 2528,
            "byteOffset" : 1621924,
            "target" : 34962
        },
        {
            "buffer" : 0,
            "byteLength" : 1896,
            "byteOffset" : 1624452,
            "target" : 34963
        }
    ],
    "samplers" : [
        {
            "magFilter" : 9729,
            "minFilter" : 9987
        }
    ],
    "buffers" : [
        {
            "byteLength" : 1626348,
            "uri" : "data:application/octet-stream;base64,"
        }
    ]
}
