{
    "asset" : {
        "generator" : "Khronos glTF Blender I/O v3.3.32",
        "version" : "2.0"
    },
    "scene" : 0,
    "scenes" : [
        {
            "name" : "Scene",
            "nodes" : [
                0,
                1,
                2,
                3,
                4,
                5,
                6
            ]
        }
    ],
    "nodes" : [
        {
            "name" : "\u30a8\u30f3\u30d7\u30c6\u30a3",
            "rotation" : [
                0.7071068286895752,
                0,
                0,
                0.7071067094802856
            ],
            "translation" : [
                0,
                1.4108264446258545,
                -2.5949556827545166
            ]
        },
        {
            "mesh" : 0,
            "name" : "\u5186"
        },
        {
            "mesh" : 1,
            "name" : "\u5186.001",
            "scale" : [
                1.4906309843063354,
                1.4906309843063354,
                1.4906309843063354
            ],
            "translation" : [
                0,
                1.8209664821624756,
                0
            ]
        },
        {
            "mesh" : 2,
            "name" : "\u7acb\u65b9\u4f53",
            "translation" : [
                0.038944292813539505,
                0.0014423810644075274,
                0
            ]
        },
        {
            "mesh" : 3,
            "name" : "\u7acb\u65b9\u4f53.001",
            "rotation" : [
                0,
                0.7071068286895752,
                0,
                0.7071068286895752
            ],
            "translation" : [
                -0.02245516888797283,
                0.0014423810644075274,
                -0.06403006613254547
            ]
        },
        {
            "mesh" : 4,
            "name" : "\u7acb\u65b9\u4f53.002",
            "rotation" : [
                0,
                -1,
                0,
                4.371138828673793e-08
            ],
            "translation" : [
                -0.009898487478494644,
                0.0014423810644075274,
                0
            ]
        },
        {
            "mesh" : 5,
            "name" : "\u7acb\u65b9\u4f53.003",
            "rotation" : [
                0,
                -0.7071068286895752,
                0,
                0.7071068286895752
            ],
            "translation" : [
                0.005409512668848038,
                0.0014423810644075274,
                0.016709372401237488
            ]
        }
    ],
    "materials" : [
        {
            "doubleSided" : true,
            "name" : "\u30de\u30c6\u30ea\u30a2\u30eb",
            "pbrMetallicRoughness" : {
                "baseColorFactor" : [
                    0.2460000067949295,
                    0.0414263978600502,
                    0.013530001975595951,
                    1
                ],
                "metallicFactor" : 0,
                "roughnessFactor" : 0.5
            }
        },
        {
            "doubleSided" : true,
            "name" : "\u30de\u30c6\u30ea\u30a2\u30eb.001",
            "pbrMetallicRoughness" : {
                "baseColorFactor" : [
                    0.2461925595998764,
                    0.04111681506037712,
                    0.013609558343887329,
                    1
                ],
                "metallicFactor" : 0,
                "roughnessFactor" : 0.5
            }
        },
        {
            "doubleSided" : true,
            "name" : "\u30de\u30c6\u30ea\u30a2\u30eb.002",
            "pbrMetallicRoughness" : {
                "baseColorFactor" : [
                    0.2460000067949295,
                    0.0414263978600502,
                    0.013530001975595951,
                    1
                ],
                "metallicFactor" : 0,
                "roughnessFactor" : 0.5
            }
        },
        {
            "doubleSided" : true,
            "name" : "\u30de\u30c6\u30ea\u30a2\u30eb.003",
            "pbrMetallicRoughness" : {
                "baseColorFactor" : [
                    0.2460000067949295,
                    0.0414263978600502,
                    0.013530001975595951,
                    1
                ],
                "metallicFactor" : 0,
                "roughnessFactor" : 0.5
            }
        },
        {
            "doubleSided" : true,
            "name" : "\u30de\u30c6\u30ea\u30a2\u30eb.005",
            "pbrMetallicRoughness" : {
                "baseColorFactor" : [
                    0.2460000067949295,
                    0.0414263978600502,
                    0.013530001975595951,
                    1
                ],
                "metallicFactor" : 0,
                "roughnessFactor" : 0.5
            }
        },
        {
            "doubleSided" : true,
            "name" : "\u30de\u30c6\u30ea\u30a2\u30eb.004",
            "pbrMetallicRoughness" : {
                "baseColorFactor" : [
                    0.2460000067949295,
                    0.0414263978600502,
                    0.013530001975595951,
                    1
                ],
                "metallicFactor" : 0,
                "roughnessFactor" : 0.5
            }
        }
    ],
    "meshes" : [
        {
            "name" : "\u5186",
            "primitives" : [
                {
                    "attributes" : {
                        "POSITION" : 0,
                        "NORMAL" : 1,
                        "TEXCOORD_0" : 2
                    },
                    "indices" : 3,
                    "material" : 0
                }
            ]
        },
        {
            "name" : "\u5186.001",
            "primitives" : [
                {
                    "attributes" : {
                        "POSITION" : 4,
                        "NORMAL" : 5,
                        "TEXCOORD_0" : 6
                    },
                    "indices" : 7,
                    "material" : 1
                }
            ]
        },
        {
            "name" : "\u7acb\u65b9\u4f53.001",
            "primitives" : [
                {
                    "attributes" : {
                        "POSITION" : 8,
                        "NORMAL" : 9,
                        "TEXCOORD_0" : 10
                    },
                    "indices" : 11,
                    "material" : 2
                }
            ]
        },
        {
            "name" : "\u7acb\u65b9\u4f53.002",
            "primitives" : [
                {
                    "attributes" : {
                        "POSITION" : 12,
                        "NORMAL" : 13,
                        "TEXCOORD_0" : 14
                    },
                    "indices" : 11,
                    "material" : 3
                }
            ]
        },
        {
            "name" : "\u7acb\u65b9\u4f53.003",
            "primitives" : [
                {
                    "attributes" : {
                        "POSITION" : 15,
                        "NORMAL" : 16,
                        "TEXCOORD_0" : 17
                    },
                    "indices" : 11,
                    "material" : 4
                }
            ]
        },
        {
            "name" : "\u7acb\u65b9\u4f53.004",
            "primitives" : [
                {
                    "attributes" : {
                        "POSITION" : 18,
                        "NORMAL" : 19,
                        "TEXCOORD_0" : 20
                    },
                    "indices" : 11,
                    "material" : 5
                }
            ]
        }
    ],
    "accessors" : [
        {
            "bufferView" : 0,
            "componentType" : 5126,
            "count" : 400,
            "max" : [
                1.194387435913086,
                1.8403452634811401,
                1.194387435913086
            ],
            "min" : [
                -1.1943868398666382,
                0.1715707927942276,
                -1.1943868398666382
            ],
            "type" : "VEC3"
        },
        {
            "bufferView" : 1,
            "componentType" : 5126,
            "count" : 400,
            "type" : "VEC3"
        },
        {
            "bufferView" : 2,
            "componentType" : 5126,
            "count" : 400,
            "type" : "VEC2"
        },
        {
            "bufferView" : 3,
            "componentType" : 5123,
            "count" : 2346,
            "type" : "SCALAR"
        },
        {
            "bufferView" : 4,
            "componentType" : 5126,
            "count" : 96,
            "max" : [
                1,
                0.08323373645544052,
                1
            ],
            "min" : [
                -1,
                0,
                -1
            ],
            "type" : "VEC3"
        },
        {
            "bufferView" : 5,
            "componentType" : 5126,
            "count" : 96,
            "type" : "VEC3"
        },
        {
            "bufferView" : 6,
            "componentType" : 5126,
            "count" : 96,
            "type" : "VEC2"
        },
        {
            "bufferView" : 7,
            "componentType" : 5123,
            "count" : 564,
            "type" : "SCALAR"
        },
        {
            "bufferView" : 8,
            "componentType" : 5126,
            "count" : 116,
            "max" : [
                -0.1407196968793869,
                0.3587862253189087,
                0.07781420648097992
            ],
            "min" : [
                -1.0340242385864258,
                -0.03200005367398262,
                -0.07781413197517395
            ],
            "type" : "VEC3"
        },
        {
            "bufferView" : 9,
            "componentType" : 5126,
            "count" : 116,
            "type" : "VEC3"
        },
        {
            "bufferView" : 10,
            "componentType" : 5126,
            "count" : 116,
            "type" : "VEC2"
        },
        {
            "bufferView" : 11,
            "componentType" : 5123,
            "count" : 204,
            "type" : "SCALAR"
        },
        {
            "bufferView" : 12,
            "componentType" : 5126,
            "count" : 116,
            "max" : [
                -0.1407196968793869,
                0.3587862253189087,
                0.07781420648097992
            ],
            "min" : [
                -1.0340242385864258,
                -0.03200005367398262,
                -0.07781413197517395
            ],
            "type" : "VEC3"
        },
        {
            "bufferView" : 13,
            "componentType" : 5126,
            "count" : 116,
            "type" : "VEC3"
        },
        {
            "bufferView" : 14,
            "componentType" : 5126,
            "count" : 116,
            "type" : "VEC2"
        },
        {
            "bufferView" : 15,
            "componentType" : 5126,
            "count" : 116,
            "max" : [
                -0.1407196968793869,
                0.3587862253189087,
                0.07781420648097992
            ],
            "min" : [
                -1.0340242385864258,
                -0.03200005367398262,
                -0.07781413197517395
            ],
            "type" : "VEC3"
        },
        {
            "bufferView" : 16,
            "componentType" : 5126,
            "count" : 116,
            "type" : "VEC3"
        },
        {
            "bufferView" : 17,
            "componentType" : 5126,
            "count" : 116,
            "type" : "VEC2"
        },
        {
            "bufferView" : 18,
            "componentType" : 5126,
            "count" : 116,
            "max" : [
                -0.1407196968793869,
                0.3587862253189087,
                0.07781420648097992
            ],
            "min" : [
                -1.0340242385864258,
                -0.03200005367398262,
                -0.07781413197517395
            ],
            "type" : "VEC3"
        },
        {
            "bufferView" : 19,
            "componentType" : 5126,
            "count" : 116,
            "type" : "VEC3"
        },
        {
            "bufferView" : 20,
            "componentType" : 5126,
            "count" : 116,
            "type" : "VEC2"
        }
    ],
    "bufferViews" : [
        {
            "buffer" : 0,
            "byteLength" : 4800,
            "byteOffset" : 0,
            "target" : 34962
        },
        {
            "buffer" : 0,
            "byteLength" : 4800,
            "byteOffset" : 4800,
            "target" : 34962
        },
        {
            "buffer" : 0,
            "byteLength" : 3200,
            "byteOffset" : 9600,
            "target" : 34962
        },
        {
            "buffer" : 0,
            "byteLength" : 4692,
            "byteOffset" : 12800,
            "target" : 34963
        },
        {
            "buffer" : 0,
            "byteLength" : 1152,
            "byteOffset" : 17492,
            "target" : 34962
        },
        {
            "buffer" : 0,
            "byteLength" : 1152,
            "byteOffset" : 18644,
            "target" : 34962
        },
        {
            "buffer" : 0,
            "byteLength" : 768,
            "byteOffset" : 19796,
            "target" : 34962
        },
        {
            "buffer" : 0,
            "byteLength" : 1128,
            "byteOffset" : 20564,
            "target" : 34963
        },
        {
            "buffer" : 0,
            "byteLength" : 1392,
            "byteOffset" : 21692,
            "target" : 34962
        },
        {
            "buffer" : 0,
            "byteLength" : 1392,
            "byteOffset" : 23084,
            "target" : 34962
        },
        {
            "buffer" : 0,
            "byteLength" : 928,
            "byteOffset" : 24476,
            "target" : 34962
        },
        {
            "buffer" : 0,
            "byteLength" : 408,
            "byteOffset" : 25404,
            "target" : 34963
        },
        {
            "buffer" : 0,
            "byteLength" : 1392,
            "byteOffset" : 25812,
            "target" : 34962
        },
        {
            "buffer" : 0,
            "byteLength" : 1392,
            "byteOffset" : 27204,
            "target" : 34962
        },
        {
            "buffer" : 0,
            "byteLength" : 928,
            "byteOffset" : 28596,
            "target" : 34962
        },
        {
            "buffer" : 0,
            "byteLength" : 1392,
            "byteOffset" : 29524,
            "target" : 34962
        },
        {
            "buffer" : 0,
            "byteLength" : 1392,
            "byteOffset" : 30916,
            "target" : 34962
        },
        {
            "buffer" : 0,
            "byteLength" : 928,
            "byteOffset" : 32308,
            "target" : 34962
        },
        {
            "buffer" : 0,
            "byteLength" : 1392,
            "byteOffset" : 33236,
            "target" : 34962
        },
        {
            "buffer" : 0,
            "byteLength" : 1392,
            "byteOffset" : 34628,
            "target" : 34962
        },
        {
            "buffer" : 0,
            "byteLength" : 928,
            "byteOffset" : 36020,
            "target" : 34962
        }
    ],
    "buffers" : [
        {
            "byteLength" : 36948,
            "uri" : "data:application/octet-stream;base64,"
        }
    ]
}
