{
    "asset" : {
        "generator" : "Khronos glTF Blender I/O v3.3.32",
        "version" : "2.0"
    },
    "scene" : 0,
    "scenes" : [
        {
            "name" : "Scene",
            "nodes" : [
                0,
                1,
                2,
                3,
                4,
                5,
                6
            ]
        }
    ],
    "nodes" : [
        {
            "mesh" : 0,
            "name" : "\u7acb\u65b9\u4f53"
        },
        {
            "mesh" : 1,
            "name" : "\u7acb\u65b9\u4f53.001",
            "scale" : [
                1,
                4,
                1
            ],
            "translation" : [
                0.15000000596046448,
                -0.22499999403953552,
                0.15000000596046448
            ]
        },
        {
            "mesh" : 2,
            "name" : "\u7acb\u65b9\u4f53.002",
            "scale" : [
                1,
                4,
                1
            ],
            "translation" : [
                -0.15000000596046448,
                -0.22499999403953552,
                -0.15000000596046448
            ]
        },
        {
            "mesh" : 3,
            "name" : "\u7acb\u65b9\u4f53.003",
            "scale" : [
                1,
                4,
                1
            ],
            "translation" : [
                0.15000000596046448,
                -0.22499999403953552,
                -0.15000000596046448
            ]
        },
        {
            "mesh" : 4,
            "name" : "\u7acb\u65b9\u4f53.004",
            "scale" : [
                1,
                4,
                1
            ],
            "translation" : [
                -0.15000000596046448,
                -0.22499999403953552,
                0.15000000596046448
            ]
        },
        {
            "mesh" : 5,
            "name" : "\u7acb\u65b9\u4f53.005",
            "scale" : [
                8.999988555908203,
                1,
                1
            ],
            "translation" : [
                0,
                -0.26999998092651367,
                -0.15000000596046448
            ]
        },
        {
            "mesh" : 6,
            "name" : "\u7acb\u65b9\u4f53.006",
            "scale" : [
                8.999988555908203,
                1,
                1
            ],
            "translation" : [
                0,
                -0.26999998092651367,
                0.15000000596046448
            ]
        }
    ],
    "materials" : [
        {
            "doubleSided" : true,
            "name" : "\u30de\u30c6\u30ea\u30a2\u30eb",
            "pbrMetallicRoughness" : {
                "baseColorFactor" : [
                    0.014627255499362946,
                    0.5124221444129944,
                    0.8000000715255737,
                    1
                ],
                "metallicFactor" : 0,
                "roughnessFactor" : 0.5
            }
        },
        {
            "doubleSided" : true,
            "name" : "\u30de\u30c6\u30ea\u30a2\u30eb.001",
            "pbrMetallicRoughness" : {
                "baseColorFactor" : [
                    0.8549918532371521,
                    0.8549920320510864,
                    0.8549927473068237,
                    1
                ],
                "metallicFactor" : 0,
                "roughnessFactor" : 0.5
            }
        },
        {
            "doubleSided" : true,
            "name" : "\u30de\u30c6\u30ea\u30a2\u30eb.005",
            "pbrMetallicRoughness" : {
                "baseColorFactor" : [
                    0.8549918532371521,
                    0.8549920320510864,
                    0.8549927473068237,
                    1
                ],
                "metallicFactor" : 0,
                "roughnessFactor" : 0.5
            }
        },
        {
            "doubleSided" : true,
            "name" : "\u30de\u30c6\u30ea\u30a2\u30eb.004",
            "pbrMetallicRoughness" : {
                "baseColorFactor" : [
                    0.8549918532371521,
                    0.8549920320510864,
                    0.8549927473068237,
                    1
                ],
                "metallicFactor" : 0,
                "roughnessFactor" : 0.5
            }
        },
        {
            "doubleSided" : true,
            "name" : "\u30de\u30c6\u30ea\u30a2\u30eb.006",
            "pbrMetallicRoughness" : {
                "baseColorFactor" : [
                    0.8549918532371521,
                    0.8549920320510864,
                    0.8549927473068237,
                    1
                ],
                "metallicFactor" : 0,
                "roughnessFactor" : 0.5
            }
        },
        {
            "doubleSided" : true,
            "name" : "\u30de\u30c6\u30ea\u30a2\u30eb.003",
            "pbrMetallicRoughness" : {
                "baseColorFactor" : [
                    0.8549918532371521,
                    0.8549920320510864,
                    0.8549927473068237,
                    1
                ],
                "metallicFactor" : 0,
                "roughnessFactor" : 0.5
            }
        },
        {
            "doubleSided" : true,
            "name" : "\u30de\u30c6\u30ea\u30a2\u30eb.002",
            "pbrMetallicRoughness" : {
                "baseColorFactor" : [
                    0.8549918532371521,
                    0.8549920320510864,
                    0.8549927473068237,
                    1
                ],
                "metallicFactor" : 0,
                "roughnessFactor" : 0.5
            }
        }
    ],
    "meshes" : [
        {
            "name" : "\u7acb\u65b9\u4f53.002",
            "primitives" : [
                {
                    "attributes" : {
                        "POSITION" : 0,
                        "NORMAL" : 1,
                        "TEXCOORD_0" : 2
                    },
                    "indices" : 3,
                    "material" : 0
                }
            ]
        },
        {
            "name" : "\u7acb\u65b9\u4f53.004",
            "primitives" : [
                {
                    "attributes" : {
                        "POSITION" : 4,
                        "NORMAL" : 5,
                        "TEXCOORD_0" : 6
                    },
                    "indices" : 7,
                    "material" : 1
                }
            ]
        },
        {
            "name" : "\u7acb\u65b9\u4f53.005",
            "primitives" : [
                {
                    "attributes" : {
                        "POSITION" : 8,
                        "NORMAL" : 9,
                        "TEXCOORD_0" : 10
                    },
                    "indices" : 7,
                    "material" : 2
                }
            ]
        },
        {
            "name" : "\u7acb\u65b9\u4f53.006",
            "primitives" : [
                {
                    "attributes" : {
                        "POSITION" : 11,
                        "NORMAL" : 12,
                        "TEXCOORD_0" : 13
                    },
                    "indices" : 7,
                    "material" : 3
                }
            ]
        },
        {
            "name" : "\u7acb\u65b9\u4f53.007",
            "primitives" : [
                {
                    "attributes" : {
                        "POSITION" : 14,
                        "NORMAL" : 15,
                        "TEXCOORD_0" : 16
                    },
                    "indices" : 7,
                    "material" : 4
                }
            ]
        },
        {
            "name" : "\u7acb\u65b9\u4f53.008",
            "primitives" : [
                {
                    "attributes" : {
                        "POSITION" : 17,
                        "NORMAL" : 18,
                        "TEXCOORD_0" : 19
                    },
                    "indices" : 20,
                    "material" : 5
                }
            ]
        },
        {
            "name" : "\u7acb\u65b9\u4f53.009",
            "primitives" : [
                {
                    "attributes" : {
                        "POSITION" : 21,
                        "NORMAL" : 22,
                        "TEXCOORD_0" : 23
                    },
                    "indices" : 20,
                    "material" : 6
                }
            ]
        }
    ],
    "accessors" : [
        {
            "bufferView" : 0,
            "componentType" : 5126,
            "count" : 129,
            "max" : [
                0.19999998807907104,
                0.20000000298023224,
                0.20000000298023224
            ],
            "min" : [
                -0.20000001788139343,
                -0.20000000298023224,
                -0.20000000298023224
            ],
            "type" : "VEC3"
        },
        {
            "bufferView" : 1,
            "componentType" : 5126,
            "count" : 129,
            "type" : "VEC3"
        },
        {
            "bufferView" : 2,
            "componentType" : 5126,
            "count" : 129,
            "type" : "VEC2"
        },
        {
            "bufferView" : 3,
            "componentType" : 5123,
            "count" : 564,
            "type" : "SCALAR"
        },
        {
            "bufferView" : 4,
            "componentType" : 5126,
            "count" : 48,
            "max" : [
                0.014999999664723873,
                0.014999999664723873,
                0.014999999664723873
            ],
            "min" : [
                -0.014999999664723873,
                -0.014999999664723873,
                -0.014999999664723873
            ],
            "type" : "VEC3"
        },
        {
            "bufferView" : 5,
            "componentType" : 5126,
            "count" : 48,
            "type" : "VEC3"
        },
        {
            "bufferView" : 6,
            "componentType" : 5126,
            "count" : 48,
            "type" : "VEC2"
        },
        {
            "bufferView" : 7,
            "componentType" : 5123,
            "count" : 72,
            "type" : "SCALAR"
        },
        {
            "bufferView" : 8,
            "componentType" : 5126,
            "count" : 48,
            "max" : [
                0.014999999664723873,
                0.014999999664723873,
                0.014999999664723873
            ],
            "min" : [
                -0.014999999664723873,
                -0.014999999664723873,
                -0.014999999664723873
            ],
            "type" : "VEC3"
        },
        {
            "bufferView" : 9,
            "componentType" : 5126,
            "count" : 48,
            "type" : "VEC3"
        },
        {
            "bufferView" : 10,
            "componentType" : 5126,
            "count" : 48,
            "type" : "VEC2"
        },
        {
            "bufferView" : 11,
            "componentType" : 5126,
            "count" : 48,
            "max" : [
                0.014999999664723873,
                0.014999999664723873,
                0.014999999664723873
            ],
            "min" : [
                -0.014999999664723873,
                -0.014999999664723873,
                -0.014999999664723873
            ],
            "type" : "VEC3"
        },
        {
            "bufferView" : 12,
            "componentType" : 5126,
            "count" : 48,
            "type" : "VEC3"
        },
        {
            "bufferView" : 13,
            "componentType" : 5126,
            "count" : 48,
            "type" : "VEC2"
        },
        {
            "bufferView" : 14,
            "componentType" : 5126,
            "count" : 48,
            "max" : [
                0.014999999664723873,
                0.014999999664723873,
                0.014999999664723873
            ],
            "min" : [
                -0.014999999664723873,
                -0.014999999664723873,
                -0.014999999664723873
            ],
            "type" : "VEC3"
        },
        {
            "bufferView" : 15,
            "componentType" : 5126,
            "count" : 48,
            "type" : "VEC3"
        },
        {
            "bufferView" : 16,
            "componentType" : 5126,
            "count" : 48,
            "type" : "VEC2"
        },
        {
            "bufferView" : 17,
            "componentType" : 5126,
            "count" : 24,
            "max" : [
                0.014999999664723873,
                0.014999999664723873,
                0.014999999664723873
            ],
            "min" : [
                -0.014999999664723873,
                -0.014999999664723873,
                -0.014999999664723873
            ],
            "type" : "VEC3"
        },
        {
            "bufferView" : 18,
            "componentType" : 5126,
            "count" : 24,
            "type" : "VEC3"
        },
        {
            "bufferView" : 19,
            "componentType" : 5126,
            "count" : 24,
            "type" : "VEC2"
        },
        {
            "bufferView" : 20,
            "componentType" : 5123,
            "count" : 36,
            "type" : "SCALAR"
        },
        {
            "bufferView" : 21,
            "componentType" : 5126,
            "count" : 24,
            "max" : [
                0.014999999664723873,
                0.014999999664723873,
                0.014999999664723873
            ],
            "min" : [
                -0.014999999664723873,
                -0.014999999664723873,
                -0.014999999664723873
            ],
            "type" : "VEC3"
        },
        {
            "bufferView" : 22,
            "componentType" : 5126,
            "count" : 24,
            "type" : "VEC3"
        },
        {
            "bufferView" : 23,
            "componentType" : 5126,
            "count" : 24,
            "type" : "VEC2"
        }
    ],
    "bufferViews" : [
        {
            "buffer" : 0,
            "byteLength" : 1548,
            "byteOffset" : 0,
            "target" : 34962
        },
        {
            "buffer" : 0,
            "byteLength" : 1548,
            "byteOffset" : 1548,
            "target" : 34962
        },
        {
            "buffer" : 0,
            "byteLength" : 1032,
            "byteOffset" : 3096,
            "target" : 34962
        },
        {
            "buffer" : 0,
            "byteLength" : 1128,
            "byteOffset" : 4128,
            "target" : 34963
        },
        {
            "buffer" : 0,
            "byteLength" : 576,
            "byteOffset" : 5256,
            "target" : 34962
        },
        {
            "buffer" : 0,
            "byteLength" : 576,
            "byteOffset" : 5832,
            "target" : 34962
        },
        {
            "buffer" : 0,
            "byteLength" : 384,
            "byteOffset" : 6408,
            "target" : 34962
        },
        {
            "buffer" : 0,
            "byteLength" : 144,
            "byteOffset" : 6792,
            "target" : 34963
        },
        {
            "buffer" : 0,
            "byteLength" : 576,
            "byteOffset" : 6936,
            "target" : 34962
        },
        {
            "buffer" : 0,
            "byteLength" : 576,
            "byteOffset" : 7512,
            "target" : 34962
        },
        {
            "buffer" : 0,
            "byteLength" : 384,
            "byteOffset" : 8088,
            "target" : 34962
        },
        {
            "buffer" : 0,
            "byteLength" : 576,
            "byteOffset" : 8472,
            "target" : 34962
        },
        {
            "buffer" : 0,
            "byteLength" : 576,
            "byteOffset" : 9048,
            "target" : 34962
        },
        {
            "buffer" : 0,
            "byteLength" : 384,
            "byteOffset" : 9624,
            "target" : 34962
        },
        {
            "buffer" : 0,
            "byteLength" : 576,
            "byteOffset" : 10008,
            "target" : 34962
        },
        {
            "buffer" : 0,
            "byteLength" : 576,
            "byteOffset" : 10584,
            "target" : 34962
        },
        {
            "buffer" : 0,
            "byteLength" : 384,
            "byteOffset" : 11160,
            "target" : 34962
        },
        {
            "buffer" : 0,
            "byteLength" : 288,
            "byteOffset" : 11544,
            "target" : 34962
        },
        {
            "buffer" : 0,
            "byteLength" : 288,
            "byteOffset" : 11832,
            "target" : 34962
        },
        {
            "buffer" : 0,
            "byteLength" : 192,
            "byteOffset" : 12120,
            "target" : 34962
        },
        {
            "buffer" : 0,
            "byteLength" : 72,
            "byteOffset" : 12312,
            "target" : 34963
        },
        {
            "buffer" : 0,
            "byteLength" : 288,
            "byteOffset" : 12384,
            "target" : 34962
        },
        {
            "buffer" : 0,
            "byteLength" : 288,
            "byteOffset" : 12672,
            "target" : 34962
        },
        {
            "buffer" : 0,
            "byteLength" : 192,
            "byteOffset" : 12960,
            "target" : 34962
        }
    ],
    "buffers" : [
        {
            "byteLength" : 13152,
            "uri" : "data:application/octet-stream;base64,"
        }
    ]
}
